<svg width="59" height="44" viewBox="0 0 59 44" fill="none" xmlns="http://www.w3.org/2000/svg">
<mask id="path-1-inside-1_224_20" fill="white">
<path fill-rule="evenodd" clip-rule="evenodd" d="M22.7798 0.450994C24.3755 1.00184 25.1907 2.68876 24.6006 4.21884L10.4012 41.0413C9.81115 42.5713 8.03933 43.3652 6.4437 42.8143C4.84807 42.2635 4.03287 40.5766 4.6229 39.0465L18.8224 2.22407C19.4124 0.693984 21.1842 -0.0998469 22.7798 0.450994Z"/>
</mask>
<path d="M24.6006 4.21884L16.2034 0.980679L16.2034 0.98068L24.6006 4.21884ZM22.7798 0.450994L25.7167 -8.05633L25.7167 -8.05634L22.7798 0.450994ZM10.4012 41.0413L18.7985 44.2794L18.7985 44.2794L10.4012 41.0413ZM6.4437 42.8143L9.3806 34.307L9.38059 34.307L6.4437 42.8143ZM4.6229 39.0465L-3.77438 35.8083L-3.77438 35.8083L4.6229 39.0465ZM18.8224 2.22407L10.4251 -1.01409L10.4251 -1.01409L18.8224 2.22407ZM32.9979 7.457C35.5141 0.932054 31.8831 -5.92758 25.7167 -8.05633L19.8429 8.95832C16.8678 7.93125 14.8673 4.44546 16.2034 0.980679L32.9979 7.457ZM18.7985 44.2794L32.9979 7.457L16.2034 0.98068L2.0039 37.8031L18.7985 44.2794ZM3.5068 51.3216C9.46139 53.3773 16.3818 50.5463 18.7985 44.2794L2.0039 37.8031C3.24047 34.5964 6.61727 33.353 9.3806 34.307L3.5068 51.3216ZM-3.77438 35.8083C-6.29052 42.3333 -2.65959 49.1929 3.50681 51.3217L9.38059 34.307C12.3557 35.3341 14.3563 38.8199 13.0202 42.2846L-3.77438 35.8083ZM10.4251 -1.01409L-3.77438 35.8083L13.0202 42.2846L27.2196 5.46223L10.4251 -1.01409ZM25.7167 -8.05634C19.7622 -10.112 12.8417 -7.28096 10.4251 -1.01409L27.2196 5.46223C25.9831 8.66893 22.6063 9.91227 19.843 8.95832L25.7167 -8.05634Z" fill="#787692" mask="url(#path-1-inside-1_224_20)"/>
<path d="M40.7898 22.5004L33.6594 15.3701C31.2496 12.9603 31.2496 9.0532 33.6594 6.64341C36.0692 4.23361 39.9763 4.23361 42.3861 6.64341L53.8798 18.1371C56.2896 20.5469 56.2896 24.4539 53.8798 26.8637L42.3861 38.3574C39.9763 40.7672 36.0692 40.7672 33.6594 38.3574C31.2496 35.9476 31.2496 32.0406 33.6594 29.6308L40.7898 22.5004Z" stroke="#787692" stroke-width="6" stroke-linejoin="round"/>
</svg>
