<svg width="134" height="100" viewBox="0 0 134 100" fill="none" xmlns="http://www.w3.org/2000/svg">
<rect y="3.05176e-05" width="134" height="82" rx="12" fill="#EF6461"/>
<path d="M20 93C20 70.5 20 79.5916 20 71H59.5C59.5 71 20 115.5 20 93Z" fill="#EF6461"/>
<path d="M38.9219 35.5703L38.9141 36.2969C38.9141 37.0104 38.9036 37.6458 38.8828 38.2031C38.2734 38.2552 37.4401 38.2812 36.3828 38.2812L34.5781 38.2891V38.5156L34.5625 39.2031C34.5625 39.3854 34.5703 39.5625 34.5859 39.7344C35.888 39.625 36.8516 39.5703 37.4766 39.5703C38.1068 39.5703 38.4922 39.6172 38.6328 39.7109V42.3281C38.6328 42.5 38.599 42.6146 38.5312 42.6719C38.4635 42.7292 38.3594 42.7578 38.2188 42.7578H38.1172L37.6953 42.7422C36.763 42.7943 35.7292 42.8333 34.5938 42.8594L34.6484 45.9688L34.6406 46.2344V46.9688C34.6406 47.125 34.5938 47.2083 34.5 47.2188L30.0312 47.2578C30.0208 47.2266 29.9818 47.1562 29.9141 47.0469C29.8932 46.7031 29.8828 46.4115 29.8828 46.1719L29.9297 35.3047C29.9297 35.237 30.2839 35.2031 30.9922 35.2031L31.1875 35.2109H31.7188L35.4922 35.1719L38.1719 35.2031H38.4375L38.5547 35.1953C38.7005 35.1953 38.7969 35.2292 38.8438 35.2969C38.8958 35.3594 38.9219 35.4505 38.9219 35.5703ZM50.7109 42.2734C50.7005 42.3255 50.6953 42.3568 50.6953 42.3672V42.4297C50.6797 43.2891 50.4818 44.0625 50.1016 44.75H50.1094C49.5781 45.5625 48.8359 46.1875 47.8828 46.625C46.9349 47.0625 46 47.2812 45.0781 47.2812C44.1562 47.2812 43.3906 47.1901 42.7812 47.0078C42.1771 46.8307 41.6172 46.5703 41.1016 46.2266C40.5859 45.8828 40.2031 45.5521 39.9531 45.2344C39.3594 44.4844 39.0625 43.4245 39.0625 42.0547C39.0625 42.0078 39.0703 41.9688 39.0859 41.9375V41.8125C39.0703 41.7917 39.0625 41.7708 39.0625 41.75L39.0781 41.6641H39.0703C39.1693 40.7526 39.362 40.1536 39.6484 39.8672C39.6484 39.8099 39.6849 39.7448 39.7578 39.6719V39.6797L39.875 39.4922C40.4896 38.7057 41.1927 38.1667 41.9844 37.875L42.2578 37.7734C42.6016 37.6068 43.0833 37.4818 43.7031 37.3984L43.9531 37.375C43.9896 37.3698 44.0625 37.3646 44.1719 37.3594C44.2865 37.3542 44.3672 37.3438 44.4141 37.3281L44.75 37.3359C44.7656 37.3307 44.7839 37.3281 44.8047 37.3281C44.8255 37.3281 44.849 37.3307 44.875 37.3359L44.8672 37.3281C44.8984 37.3438 44.9453 37.3516 45.0078 37.3516C45.0286 37.3307 45.0651 37.3203 45.1172 37.3203C46.2474 37.3203 47.2083 37.5521 48 38.0156L48.1562 38.0859C49.8594 38.9036 50.7109 40.2995 50.7109 42.2734ZM45.8516 42.3203C45.8307 41.2839 45.6823 40.5833 45.4062 40.2188C45.2917 40.0677 45.151 39.9922 44.9844 39.9922C44.8229 39.9922 44.6797 40.0885 44.5547 40.2812C44.4297 40.4688 44.3281 40.7656 44.25 41.1719C44.1771 41.5781 44.1406 41.9401 44.1406 42.2578C44.1406 42.5703 44.1536 42.8411 44.1797 43.0703C44.2109 43.2943 44.2552 43.5339 44.3125 43.7891C44.3698 44.0391 44.4583 44.25 44.5781 44.4219C44.6979 44.5885 44.8333 44.6719 44.9844 44.6719C45.5625 44.6719 45.8516 43.888 45.8516 42.3203ZM51.5 37.6484L53.5781 37.6406H55.6562L55.8281 38.6875C55.9479 39.4219 56.0182 39.8385 56.0391 39.9375H56.3125C56.5052 39.0469 56.875 38.4141 57.4219 38.0391L57.7344 37.8594C57.75 37.8281 57.8438 37.7708 58.0156 37.6875L57.9844 37.6953L58.1641 37.625C58.6745 37.4219 59.1146 37.3177 59.4844 37.3125C59.5625 37.3125 59.6146 37.3177 59.6406 37.3281H59.9297V41.6875C59.8203 41.6615 59.6484 41.6484 59.4141 41.6484C59.1797 41.6484 58.9375 41.6823 58.6875 41.75C58.4427 41.8177 58.2344 41.9062 58.0625 42.0156C57.8958 42.1198 57.75 42.2552 57.625 42.4219C57.2396 42.9375 57.0469 43.7109 57.0469 44.7422L57.0625 45.5625V47L54.2812 47.0078H51.5078L51.5 42.3438V37.6484ZM76.7422 41.8047L76.75 44.2344V45.6641L76.7578 47.0078H72.3203L72.3125 43.0078L72.3359 42.1406C72.3359 41.6667 72.2656 41.3151 72.125 41.0859C71.9896 40.8516 71.8203 40.7344 71.6172 40.7344C71.2318 40.7344 70.9922 40.9271 70.8984 41.3125C70.8307 41.5833 70.7969 41.9375 70.7969 42.375V43.375L70.8047 43.7031V47L68.5625 47.0078H66.3359L66.3281 40.8828V34.75C67.375 34.7396 68.8828 34.7344 70.8516 34.7344L70.8594 38.6719C71.224 38.2604 71.6667 37.9323 72.1875 37.6875C72.7135 37.4427 73.1927 37.3203 73.625 37.3203C74.0573 37.3203 74.4818 37.4245 74.8984 37.6328C75.3151 37.8411 75.6589 38.1172 75.9297 38.4609C76.1589 38.8203 76.3542 39.2552 76.5156 39.7656C76.6771 40.2708 76.7578 40.6927 76.7578 41.0312L76.7422 41.8047ZM82.5625 34.6719L82.5703 36.8125H77.7578C77.7578 36.3125 77.7526 35.9557 77.7422 35.7422L77.7344 34.6875L82.5625 34.6719ZM77.6562 34.6875L77.7344 34.6094V34.6875H77.6562ZM82.5938 44.5234L82.6016 44.5938L82.6094 45.7656C82.6094 45.9792 82.599 46.2344 82.5781 46.5312C82.5573 46.8281 82.5391 46.9818 82.5234 46.9922L82.3828 47.0078H79.5391L79.2109 47.0391C78.3984 47.0391 77.9036 47.0286 77.7266 47.0078V46.9531L77.7188 46.8047V46.4531C77.7188 45.4271 77.7344 44.5755 77.7656 43.8984L77.8516 37.8828V37.6484L78.4609 37.6406L78.5938 37.6484H78.8203L79.0156 37.6562L79.1172 37.6484H79.6797L79.7969 37.6406L82.4609 37.6719C82.4818 37.6667 82.4974 37.6641 82.5078 37.6641C82.5182 37.6641 82.5234 37.6797 82.5234 37.7109L82.5312 38.4531C82.5365 38.9479 82.5469 39.612 82.5625 40.4453C82.5781 41.2734 82.5859 41.8594 82.5859 42.2031L82.5781 43.1797V43.5938L82.6016 44.0078V44.25C82.6016 44.2552 82.599 44.2656 82.5938 44.2812V44.5234ZM83.5625 37.6484L85.6406 37.6406H87.7188L87.8906 38.6875C88.0104 39.4219 88.0807 39.8385 88.1016 39.9375H88.375C88.5677 39.0469 88.9375 38.4141 89.4844 38.0391L89.7969 37.8594C89.8125 37.8281 89.9062 37.7708 90.0781 37.6875L90.0469 37.6953L90.2266 37.625C90.737 37.4219 91.1771 37.3177 91.5469 37.3125C91.625 37.3125 91.6771 37.3177 91.7031 37.3281H91.9922V41.6875C91.8828 41.6615 91.7109 41.6484 91.4766 41.6484C91.2422 41.6484 91 41.6823 90.75 41.75C90.5052 41.8177 90.2969 41.9062 90.125 42.0156C89.9583 42.1198 89.8125 42.2552 89.6875 42.4219C89.3021 42.9375 89.1094 43.7109 89.1094 44.7422L89.125 45.5625V47L86.3438 47.0078H83.5703L83.5625 42.3438V37.6484ZM96.8047 37.4219C97.0391 37.3542 97.2891 37.3203 97.5547 37.3203C97.8203 37.3203 98.0729 37.3307 98.3125 37.3516L98.6406 37.3828C99.1562 37.4297 99.5521 37.4896 99.8281 37.5625V37.5547L99.9922 37.625C101.086 37.9635 101.938 38.4792 102.547 39.1719V39.1641C102.688 39.3307 102.859 39.5833 103.062 39.9219C103.271 40.2552 103.375 40.487 103.375 40.6172L103.438 40.8281L103.477 41.0547C103.576 41.4036 103.625 41.6953 103.625 41.9297C103.625 42.1641 103.628 42.3438 103.633 42.4688H97.1953V42.7266C97.2266 42.8464 97.2422 42.9714 97.2422 43.1016C97.2422 43.2318 97.2422 43.3359 97.2422 43.4141C97.2474 43.487 97.2552 43.5599 97.2656 43.6328C97.276 43.7005 97.2812 43.7578 97.2812 43.8047C97.2865 43.8464 97.2995 43.8984 97.3203 43.9609C97.3411 44.0182 97.3516 44.0573 97.3516 44.0781C97.3568 44.099 97.3724 44.1406 97.3984 44.2031C97.4297 44.2656 97.4531 44.3255 97.4688 44.3828C97.4896 44.4349 97.526 44.487 97.5781 44.5391V44.5312L97.6641 44.6953C97.763 44.8047 97.8984 44.8828 98.0703 44.9297C98.3568 44.8672 98.5495 44.7188 98.6484 44.4844C98.7526 44.25 98.8385 43.9583 98.9062 43.6094C99.0938 43.5573 99.3594 43.5312 99.7031 43.5312L100.703 43.5547H103.586C103.523 44.1901 103.336 44.7734 103.023 45.3047H103.031C102.76 45.7318 102.339 46.099 101.766 46.4062C100.146 46.974 99.1068 47.2578 98.6484 47.2578C98.5651 47.2578 98.4974 47.2526 98.4453 47.2422H98.2656L98.1953 47.25H98.125C98.0833 47.25 98.0312 47.2448 97.9688 47.2344C97.9167 47.2656 97.8542 47.2812 97.7812 47.2812L97.1016 47.2031C97.0651 47.2188 96.9896 47.2266 96.875 47.2266C96.7656 47.2266 96.474 47.1562 96 47.0156V47.0234L95.8125 46.9688L95.625 46.9062C94.8438 46.6771 94.1745 46.276 93.6172 45.7031C93.0599 45.125 92.7031 44.4531 92.5469 43.6875C92.5312 43.5938 92.5026 43.4531 92.4609 43.2656C92.4193 43.0729 92.3984 42.9427 92.3984 42.875V42.5C92.3984 42.4115 92.401 42.3438 92.4062 42.2969V42.1797C92.4062 41.0755 92.7344 40.1224 93.3906 39.3203C94.0469 38.513 94.9271 37.9453 96.0312 37.6172L96.2188 37.5625C96.4948 37.5156 96.6927 37.4661 96.8125 37.4141L96.8047 37.4219ZM99.1406 41.4375L99.3047 41.3359C99.2161 40.7734 99.1328 40.4141 99.0547 40.2578C98.9766 40.0964 98.901 39.9583 98.8281 39.8438C98.6927 39.625 98.513 39.5156 98.2891 39.5156C98.0703 39.5156 97.8828 39.625 97.7266 39.8438C97.4505 40.2292 97.276 40.7708 97.2031 41.4688C97.5365 41.4479 97.8438 41.4375 98.125 41.4375H99.1406Z" fill="white"/>
</svg>
